PathFileType	4	(X/Y/Z)	OpenSim_Sub07_EMGBaseline_Accel.trc
DataRate	CameraRate	NumFrames	NumMarkers	Units	OrigDataRate	OrigDataStartFrame	OrigNumFrames
100	100	34	8	m	100	5975	6828
Frame#	Time	torso_imu_offset_imu	pelvis_imu_offset_imu	tibia_r_imu_offset_imu	femur_r_imu_offset_imu	tibia_l_imu_offset_imu	femur_l_imu_offset_imu	toes_r_imu_offset_imu	toes_l_imu_offset_imu
				X1	Y1	Z1	X2	Y2	Z2	X3	Y3	Z3	X4	Y4	Z4	X5	Y5	Z5	X6	Y6	Z6	X7	Y7	Z7	X8		Y8	Z8	

5975	59.74000000	-10.96308700	0.50470100	6.78287300	10.70814100	0.75150000	2.52787900	12.96064500	-0.99941100	3.35848900	9.73853600	-3.40631500	2.69675800	12.80523400	-0.63639100	1.26191200	11.18463600	1.90121800	-1.71221800	9.18398800	3.91306700	10.19529000	4.58741000	1.05020300	12.74127200
5976	59.75000000	-10.57654700	0.51557700	6.65786200	10.46019400	0.04007300	2.65411600	10.51535400	3.55460600	3.17217600	10.24098200	-3.45296300	3.74946800	12.95982800	-0.48870300	1.77745800	11.75191500	1.74329800	-0.97652600	15.90380700	0.14372900	14.51368800	4.95590300	0.93789400	12.71222500
5977	59.76000000	-10.50379900	0.56988300	6.73622500	10.60341700	-0.74821700	3.04114400	10.66258500	5.18621200	1.34122400	11.32028700	-3.76249100	2.99555300	13.57419100	-0.38170300	1.82015800	11.88614600	2.19457000	-0.49288200	13.08392400	-0.76185200	11.43441900	4.07358000	0.76591000	13.04624600
5978	59.77000000	-10.89514700	0.71201200	6.65671200	11.00280900	-1.12462500	3.51046200	10.69160500	5.50862300	-1.24959200	11.29688200	-4.31755000	0.34294700	14.69848100	0.47957400	1.30713000	11.71239800	3.01975400	-0.28175200	10.91809500	-6.69705500	10.45636400	4.50720000	0.96888400	14.02878600
5979	59.78000000	-11.21283600	0.86787300	6.48520200	11.37045200	-0.75019200	3.34508400	10.13237100	4.61393600	-2.38832700	11.93942900	-4.94663700	-0.43574400	15.85363600	1.46899100	0.86137600	11.40365000	3.59418800	-0.63032000	18.83093400	-0.76215200	14.47448800	3.46336400	0.78863000	13.36564500
5980	59.79000000	-11.29123200	1.03402800	6.30338100	11.33577000	-0.21967500	3.30253000	10.05211200	3.99790700	-2.25855200	11.91407900	-3.60488100	0.63583600	16.44901800	2.44159500	1.39669600	11.04434800	3.27018700	-1.18088300	6.36414900	3.81417100	8.83937000	4.23254800	1.36272900	13.22962500
5981	59.80000000	-10.99923400	1.20469900	6.09946700	11.17412700	-0.40433200	3.22308000	10.62448500	5.03251900	-2.26206500	9.77476100	-0.33351000	1.46136000	16.55844200	2.30442200	1.56796600	10.94754400	2.47106400	-1.09620700	5.42054500	5.41119700	10.28607100	4.31451600	2.74236500	13.80462700
5982	59.81000000	-10.52582100	1.31432300	5.92916200	11.15557500	-1.07772700	3.46139300	9.42837200	5.33893800	-2.94921500	9.17046700	2.43445500	-0.86621600	15.87725500	2.02385800	1.78081100	11.09973600	2.00728100	-0.70612300	8.23744300	2.35649200	9.52258700	5.23222000	2.80023700	14.46515200
5983	59.82000000	-10.19184800	1.37577600	5.85806700	11.09072100	-1.25522600	3.72280300	7.61650200	5.66828000	-4.90422800	10.00932500	2.89353100	-0.56175800	14.75589200	1.08393600	1.86471500	11.19803000	1.72252600	-0.23706300	6.92789500	0.94052300	9.08969000	6.10269900	1.63704400	13.82934300
5984	59.83000000	-9.94295100	1.46713100	5.73660000	10.81987300	-1.12061700	4.02142400	6.42609300	6.70224500	-4.12553600	10.14719300	2.31078900	0.97944600	14.29751800	-0.50800500	1.51302200	11.26143200	1.46822600	0.43737100	5.25225200	0.52432000	8.64112700	6.77057200	1.26050400	12.21664800
5985	59.84000000	-9.76130200	1.50782900	5.60484000	10.38054800	-0.84271800	4.25185700	7.12148300	8.53047300	-3.15795200	10.03068700	1.61087000	0.09057500	13.93140400	-2.72623600	0.72764400	11.41264900	0.88374700	0.37358100	6.10085200	0.51735700	8.51538400	11.61887300	-0.43743200	12.16742600
5986	59.85000000	-9.54637400	1.57257400	5.47897800	9.87373700	-0.38624100	4.53323200	9.16643500	9.47988000	-1.13631400	10.75690700	0.64043900	-1.35760900	14.00192700	-5.70866900	-0.78728500	11.47572600	0.30534800	-0.42146100	5.57818900	1.50716300	8.88312100	16.04572000	2.64975400	12.93664600
5987	59.86000000	-9.31430200	1.59540400	5.32131100	9.38193300	0.11471000	4.53127600	10.58747400	7.25174700	0.31204200	10.80284000	-0.45647600	-0.92461800	13.86659100	-7.21476100	-1.46266300	11.30055600	-0.28363300	-0.72124700	5.28194600	1.86255700	8.92029700	15.54230200	6.99318700	16.09710900
5988	59.87000000	-9.11782400	1.62566600	5.22685100	9.30081400	0.68518700	4.37943600	10.80961300	4.63536500	-0.79039500	9.94651600	-1.21255800	-0.30651300	12.87292000	-7.43229100	-1.33401600	11.27500400	-0.69204100	-1.00266200	5.39557400	1.48693100	8.63365800	12.56858400	4.24016700	14.98678100
5989	59.88000000	-8.90806400	1.59031100	5.22099900	9.41555200	1.01659900	4.15037000	10.35940400	2.59590700	-1.09419500	9.43178500	-1.37040400	-0.36358800	10.84629900	-7.09870300	-1.01980300	11.57734400	-0.75783200	-1.33597000	4.91915400	1.36311600	8.70730300	11.19305100	2.68713500	12.12524600
5990	59.89000000	-9.03200400	1.53302100	5.27742100	9.34309900	1.09583000	3.95343100	10.75132400	0.16614600	-1.44618500	9.11730100	-1.13707400	-0.44757400	8.24083800	-6.80278200	0.06856900	11.91201500	-0.38714800	-1.62937400	5.45082900	1.11271100	8.63526900	6.78479100	2.34207000	10.51131100
5991	59.90000000	-9.19378800	1.43507500	5.30607200	9.25750800	1.07847500	3.77956500	10.41352000	-2.88584400	-2.41941500	8.90029000	-0.93046500	-0.39338000	5.73023000	-6.99896300	1.30273600	11.94405900	0.40094700	-1.60550700	5.29860900	0.87580600	8.58197500	3.26683400	4.33575300	8.94058000
5992	59.91000000	-9.21460300	1.24968500	5.38917500	9.25111100	1.06194400	3.61587600	10.39282400	-3.00612300	-2.21894100	8.95512100	-0.72114200	-0.59100400	3.77861000	-7.56422300	2.06041900	11.58333100	1.11877200	-1.12043700	5.37881400	0.82827000	8.55213200	0.29516200	3.79861600	7.73083200
5993	59.92000000	-9.22094600	1.12914900	5.50764800	9.32460100	1.10024400	3.40041700	10.48724400	-0.25915900	-1.38693900	9.28093500	-0.48761700	-0.84228600	2.48292300	-7.60454500	2.59558100	11.31442700	1.51946000	-0.46185800	5.27174700	1.36559900	8.64999600	25.58445099	-4.33669000	23.12104200
5994	59.93000000	-9.24484600	1.05918200	5.51713200	9.45933900	1.14489200	3.30428900	10.26027500	1.73549300	-0.99294000	9.49919800	-0.16094700	-0.70456000	1.22571400	-8.32794500	3.54176900	11.23586700	1.79971100	-0.08108000	5.69874500	1.52534800	8.44554800	40.26460200	1.02917500	17.90812500
5995	59.94000000	-9.26128700	1.07869000	5.51251600	9.59683800	1.15523300	3.37921300	9.47260500	3.50078500	-1.11662700	9.36842600	0.13573500	-0.59297100	0.04360400	-9.69103100	4.01425400	11.36283500	1.89176900	-0.02156200	5.29715800	1.43382500	8.47418300	13.85981701	7.04906300	22.18316700
5996	59.95000000	-9.46936200	1.05857800	5.62995500	9.83520100	1.02350000	3.35954000	8.81983700	5.33933300	-1.40890000	9.20053000	0.44639600	-0.55352400	0.17695700	-9.89685500	3.12839500	11.74230500	1.96946400	-0.08724500	5.14857500	1.16747100	8.61420500	2.08297400	11.51668100	16.13374900
5997	59.96000000	-9.62558000	0.99280000	5.64812400	9.88281800	0.84185900	3.31041300	8.80913800	5.91652900	-1.33759300	9.23479600	0.91330200	-0.54817700	1.64422400	-7.90889300	2.01424500	11.92223800	2.27926100	-0.29326700	4.98424000	1.06414800	8.81053700	-1.45413200	7.63498300	9.86377600
5998	59.97000000	-9.64562000	0.92250000	5.61855000	9.77093900	0.77391200	3.11986300	9.46985600	5.49907800	-1.23559700	9.32254000	0.94388600	-0.70931900	2.82391700	-5.26603900	1.68813700	11.40265700	2.46017300	-0.31222300	5.04394900	1.12053700	8.64212400	-6.46500700	4.99409200	7.56785500
5999	59.98000000	-9.42802200	0.80351000	5.62844800	9.56837200	0.79922600	2.89776300	9.99862000	4.37778900	-1.10861900	9.49875700	0.69261400	-0.64212800	2.87919400	-3.13909300	2.78424200	10.51459600	2.73820400	-0.15656800	5.23447100	1.22610300	8.51843700	-2.76323700	3.89774000	7.21536000
6000	59.99000000	-9.11017300	0.71261200	5.57032300	9.30038700	0.93912600	2.75060300	9.88594200	3.24312300	-0.90053300	9.63176800	0.45640300	-0.28802300	2.24081000	-2.00446100	4.48810200	9.75901800	2.61067400	0.00326100	5.24022200	1.28909800	8.46981100	-1.00290900	2.82551600	7.62235600
6001	60.00000000	-8.75542300	0.66044500	5.54018900	9.17456600	1.05958800	2.64567100	9.59372800	2.05503500	-0.60357900	9.71356900	0.21875100	0.01669800	1.55611400	-2.22089400	5.53176900	9.22977900	2.67311800	0.03765900	5.24702500	1.48649600	8.48236700	1.62811700	4.35191300	8.80809900
6002	60.01000000	-8.59642200	0.65313900	5.53097500	9.09304100	1.14585100	2.60003700	9.53249000	1.42166100	-0.42115400	9.74443900	0.05478200	0.28461400	1.19572200	-3.35247800	5.94010200	8.91676300	2.56749200	0.00991800	5.12988900	1.59220900	8.42501800	2.59734900	5.45604500	9.40782100
6003	60.02000000	-8.52534200	0.69267600	5.52739300	8.98064500	1.19103400	2.62864500	9.61419300	1.60328500	-0.34459800	9.61167100	-0.11939600	0.45241000	1.12103100	-4.20660500	5.79918500	8.64163600	1.84927100	-0.05034200	5.21884100	1.57094200	8.43811200	2.47157000	6.14051300	9.47323900
6004	60.03000000	-8.45149800	0.74762500	5.54421500	8.85860700	1.19525900	2.67568100	9.71969900	2.30706700	-0.45595000	9.41705600	-0.28929000	0.54416700	1.20306400	-4.44447000	5.06054600	8.37513900	1.37139900	-0.25295200	4.96039300	1.55071100	8.55480100	2.12377500	5.00515900	8.94773900
6005	60.04000000	-8.37036400	0.73371700	5.52252800	8.77065000	1.16901200	2.68286400	9.61533700	2.88020100	-0.64561300	9.36350700	-0.50487900	0.54031000	1.26809200	-4.34620900	4.42172100	8.25004200	1.29227700	-0.42210600	4.84853500	1.41687300	8.55919400	2.39834400	3.13510100	8.41508200
6006	60.05000000	-8.31168900	0.73068400	5.49730300	8.78287400	1.02294400	2.66247400	9.27787200	3.31456800	-0.86442800	9.41188300	-0.61223400	0.40617400	1.17407500	-3.87376200	4.39314200	8.12555500	0.99898600	-0.46455400	4.88512700	1.26551500	8.63060900	2.60316200	1.67213700	7.92692100
6007	60.06000000	-8.26331100	0.73927000	5.55925100	8.76558100	0.94532800	2.64511400	9.15551700	3.49963500	-0.72375800	9.31412100	-0.67567800	0.29101700	1.57980900	-2.66129200	5.35314100	7.95915800	0.54094300	-0.37459100	5.33028400	1.25555000	8.36754100	2.85525700	0.91289600	7.53050700
6008	60.07000000	-8.20326800	0.70909900	5.61982400	8.77637700	0.75857800	2.72274400	9.18449500	3.37458900	-0.84831300	9.19584100	-0.75866900	0.19308800	2.18296800	-0.12865200	6.60607600	7.95525600	0.51468100	-0.23022900	5.06746300	1.39256800	8.45738400	2.73886100	0.57504200	6.90479400
